<svg width="77" height="20" viewBox="0 0 77 20" fill="none" xmlns="http://www.w3.org/2000/svg">
<path d="M0 17.4805H16.6602V19.5801H0V17.4805Z" fill="white"/>
<path d="M65.7422 3.94531H68.6621L71.1426 11.3086L73.5645 3.94531H76.4062L72.7441 13.9258L72.0898 15.7324C71.849 16.3379 71.6178 16.8001 71.3965 17.1191C71.1816 17.4382 70.931 17.6953 70.6445 17.8906C70.3646 18.0924 70.0163 18.2487 69.5996 18.3594C69.1895 18.4701 68.724 18.5254 68.2031 18.5254C67.6758 18.5254 67.1582 18.4701 66.6504 18.3594L66.4062 16.2109C66.8359 16.2956 67.2233 16.3379 67.5684 16.3379C68.2064 16.3379 68.6784 16.1491 68.9844 15.7715C69.2904 15.4004 69.5247 14.9251 69.6875 14.3457L65.7422 3.94531Z" fill="white"/>
<path d="M61.875 14.3164H59.1309V3.94531H61.6797V5.41992C62.1159 4.72331 62.5065 4.26432 62.8516 4.04297C63.2031 3.82161 63.6003 3.71094 64.043 3.71094C64.668 3.71094 65.2702 3.88346 65.8496 4.22852L65 6.62109C64.5378 6.32161 64.1081 6.17188 63.7109 6.17188C63.3268 6.17188 63.0013 6.2793 62.7344 6.49414C62.4674 6.70247 62.2559 7.08333 62.0996 7.63672C61.9499 8.1901 61.875 9.34896 61.875 11.1133V14.3164Z" fill="white"/>
<path d="M50.166 7.10938L47.6758 6.66016C47.9557 5.65755 48.4375 4.91536 49.1211 4.43359C49.8047 3.95182 50.8203 3.71094 52.168 3.71094C53.3919 3.71094 54.3034 3.85742 54.9023 4.15039C55.5013 4.43685 55.9212 4.80469 56.1621 5.25391C56.4095 5.69661 56.5332 6.51367 56.5332 7.70508L56.5039 10.9082C56.5039 11.8197 56.5462 12.4935 56.6309 12.9297C56.722 13.3594 56.888 13.8216 57.1289 14.3164H54.4141C54.3424 14.1341 54.2546 13.8639 54.1504 13.5059C54.1048 13.3431 54.0723 13.2357 54.0527 13.1836C53.584 13.6393 53.0827 13.9811 52.5488 14.209C52.015 14.4368 51.4453 14.5508 50.8398 14.5508C49.7721 14.5508 48.929 14.2611 48.3105 13.6816C47.6986 13.1022 47.3926 12.3698 47.3926 11.4844C47.3926 10.8984 47.5326 10.3776 47.8125 9.92188C48.0924 9.45964 48.4831 9.10807 48.9844 8.86719C49.4922 8.61979 50.2214 8.40495 51.1719 8.22266C52.4544 7.98177 53.3431 7.75716 53.8379 7.54883V7.27539C53.8379 6.74805 53.7077 6.3737 53.4473 6.15234C53.1868 5.92448 52.6953 5.81055 51.9727 5.81055C51.4844 5.81055 51.1035 5.9082 50.8301 6.10352C50.5566 6.29232 50.3353 6.6276 50.166 7.10938ZM53.8379 9.33594C53.4863 9.45312 52.9297 9.5931 52.168 9.75586C51.4062 9.91862 50.9082 10.0781 50.6738 10.2344C50.3158 10.4883 50.1367 10.8105 50.1367 11.2012C50.1367 11.5853 50.2799 11.9173 50.5664 12.1973C50.8529 12.4772 51.2174 12.6172 51.6602 12.6172C52.1549 12.6172 52.627 12.4544 53.0762 12.1289C53.4082 11.8815 53.6263 11.5788 53.7305 11.2207C53.8021 10.9863 53.8379 10.5404 53.8379 9.88281V9.33594Z" fill="white"/>
<path d="M44.834 14.3164H42.1777L42.4121 13.1934C41.9043 13.6816 41.403 14.0332 40.9082 14.248C40.4199 14.4564 39.8665 14.5605 39.248 14.5605C38.1738 14.5605 37.3014 14.196 36.6309 13.4668C35.9668 12.7311 35.6348 11.6471 35.6348 10.2148C35.6348 8.55469 36.1035 7.05404 37.041 5.71289C37.9785 4.37174 39.2188 3.70117 40.7617 3.70117C42.1549 3.70117 43.1999 4.25456 43.8965 5.36133L45.0195 0H47.8223L44.834 14.3164ZM38.3594 10.0977C38.3594 10.8398 38.5449 11.4193 38.916 11.8359C39.2936 12.2526 39.7559 12.4609 40.3027 12.4609C40.8105 12.4609 41.2826 12.2884 41.7188 11.9434C42.1615 11.5918 42.513 11.0579 42.7734 10.3418C43.0404 9.62565 43.1738 8.9388 43.1738 8.28125C43.1738 7.53255 42.972 6.92708 42.5684 6.46484C42.1647 6.0026 41.6992 5.77148 41.1719 5.77148C40.3516 5.77148 39.6777 6.22721 39.1504 7.13867C38.623 8.05013 38.3594 9.03646 38.3594 10.0977Z" fill="white"/>
<path d="M25.2344 3.94531H27.8906L27.6172 5.29297C28.2812 4.72005 28.8997 4.31315 29.4727 4.07227C30.0521 3.82487 30.6608 3.70117 31.2988 3.70117C32.1517 3.70117 32.8223 3.94531 33.3105 4.43359C33.8053 4.92188 34.0527 5.56966 34.0527 6.37695C34.0527 6.74154 33.9453 7.43164 33.7305 8.44727L32.5098 14.3164H29.707L30.9375 8.42773C31.1198 7.54883 31.2109 7.02474 31.2109 6.85547C31.2109 6.4974 31.1035 6.21745 30.8887 6.01562C30.6803 5.80729 30.3874 5.70312 30.0098 5.70312C29.5996 5.70312 29.1439 5.87565 28.6426 6.2207C28.1413 6.56576 27.7474 7.02148 27.4609 7.58789C27.2526 7.99154 27.0182 8.8151 26.7578 10.0586L25.8691 14.3164H23.0664L25.2344 3.94531Z" fill="white"/>
<path d="M20.4492 0H23.252L22.7246 2.53906H19.9219L20.4492 0ZM19.6289 3.94531H22.4316L20.2637 14.3164H17.4609L19.6289 3.94531Z" fill="white"/>
<path d="M9.05273 14.3164H6.25977L5.74219 2.35352L3.4668 14.3164H0.810547L3.79883 0H7.99805L8.4375 10.0293L13.3203 0H17.5684L14.5703 14.3164H11.8848L14.707 2.44141L9.05273 14.3164Z" fill="white"/>
</svg>
